<svg style="object-fit:cover" id="my-svg" version="1" baseProfile="full" width="100%" height="100%" viewBox="0 0 1920 961" xmlns="http://www.w3.org/2000/svg"><rect width="1920" height="961" fill="#f2e3e3"/><defs><linearGradient id="linear-gradient" x1="0" x2="1" y1="0" y2="0"><stop offset="0%" stop-color="#c81d1190"/><stop offset="100%" stop-color="#273faa90"/></linearGradient></defs><path transform="scale(1, 1)" style="transform-origin:center" d="M 0,961 V 0,661 C 133.80512820512817,652.2230769230769 267.61025641025634,643.4461538461538 370,587 C 472.38974358974366,530.5538461538462 543.3641025641026,426.43846153846164 632,498 C 720.6358974358974,569.5615384615384 826.9333333333334,816.8 931,833 C 1035.0666666666666,849.2 1136.9025641025642,634.3615384615385 1242,587 C 1347.0974358974358,539.6384615384615 1455.4564102564104,659.7538461538461 1569,700 C 1682.5435897435896,740.2461538461539 1801.2717948717948,700.623076923077 1920,661 C 1920,661 1920,961 1920,961 Z" stroke="none" stroke-width="0" fill="url(#linear-gradient)" class="transition-all duration-300 ease-in-out delay-150"/><defs><linearGradient id="linear-gradient" x1="0" x2="1" y1="0" y2="0"><stop offset="0%" stop-color="#c81d11ff"/><stop offset="100%" stop-color="#273faaff"/></linearGradient></defs><path transform="scale(1, 1)" style="transform-origin:center" d="M 0,961 V 0,991 C 112.12820512820514,1116.0897435897436 224.25641025641028,1241.179487179487 331,1197 C 437.7435897435897,1152.820512820513 539.1025641025641,939.3717948717948 646,964 C 752.8974358974359,988.6282051282052 865.3333333333335,1251.3333333333333 967,1231 C 1068.6666666666665,1210.6666666666667 1159.5641025641028,907.2948717948718 1260,865 C 1360.4358974358972,822.7051282051282 1470.4102564102564,1041.4871794871794 1582,1106 C 1693.5897435897436,1170.5128205128206 1806.7948717948718,1080.7564102564102 1920,991 C 1920,991 1920,961 1920,961 Z" stroke="none" stroke-width="0" fill="url(#linear-gradient)" class="transition-all duration-300 ease-in-out delay-150"/></svg>